<svg width="126" height="100" viewBox="0 0 126 100" fill="none" xmlns="http://www.w3.org/2000/svg">
<g id="ufhfdghsh 1" clip-path="url(#clip0_1454_89)">
<path id="Vector" d="M58.5331 3.10989L13.4128 92.7201C11.7459 96.026 14.1483 99.9273 17.8534 99.9273H108.101C111.799 99.9273 114.202 96.026 112.542 92.7201L67.4143 3.10989C65.5792 -0.539235 60.3682 -0.539235 58.5331 3.10989Z" fill="#735EAB"/>
<path id="Vector_2" d="M117.641 6.80807L59.4227 92.8952C57.3985 95.886 59.5417 99.9273 63.1558 99.9273H120.085C122.55 99.9273 124.554 97.9522 124.596 95.4867L125.884 9.39958C125.954 4.92397 120.155 3.09591 117.641 6.80807Z" fill="#735EAB"/>
<path id="Vector_3" d="M8.23682 6.80807L66.4547 92.9022C68.4789 95.893 66.3357 99.9343 62.7216 99.9343H5.79239C3.32696 99.9343 1.32379 97.9592 1.28877 95.4937L1.8465e-05 9.39958C-0.0700223 4.92397 5.72936 3.09591 8.23682 6.80807Z" fill="#735EAB"/>
<path id="Vector_4" d="M62.9737 53.9246L68.1217 65.3902L80.624 66.742L71.3016 75.1819L73.8791 87.4881L62.9737 81.2335L52.0684 87.4881L54.6459 75.1819L45.3304 66.742L57.8257 65.3902L62.9737 53.9246Z" fill="white"/>
</g>
<defs>
<clipPath id="clip0_1454_89">
<rect width="125.884" height="99.556" fill="white" transform="translate(0 0.371338)"/>
</clipPath>
</defs>
</svg>
