<svg width="17" height="22" viewBox="0 0 17 22" fill="none" xmlns="http://www.w3.org/2000/svg">
<path id="Vector" d="M4.83462 5.93112V4.31163C4.83462 1.99899 6.57195 0.112274 8.72998 0.112274C10.888 0.112274 12.6253 1.99899 12.6253 4.31163V5.93112H15.3178C15.4412 5.93121 15.5599 5.97988 15.6501 6.06733C15.7403 6.15478 15.7953 6.2745 15.804 6.4024L16.7295 20.573C16.7376 20.7069 16.6945 20.8387 16.6096 20.9397C16.5247 21.0407 16.4048 21.1027 16.2761 21.1123H1.21661C1.08768 21.1123 0.964025 21.059 0.872856 20.9643C0.781687 20.8695 0.730469 20.741 0.730469 20.607V20.573L1.65601 6.4024C1.6643 6.27422 1.71911 6.15409 1.80935 6.0663C1.8996 5.97852 2.01855 5.92962 2.14215 5.9295L4.83462 5.93112ZM6.29616 5.93112H11.1654V4.31163C11.1654 2.82331 10.0747 1.62974 8.72998 1.62974C7.3853 1.62974 6.29616 2.82331 6.29616 4.31163V5.93112ZM2.25901 19.5964H15.201L14.4094 7.45021H3.0521L2.25901 19.5964Z" fill="#1D192B"/>
</svg>
